<?xml version="1.0" encoding="utf-8"?>
<!-- Svg Vector Icons : http://www.onlinewebfonts.com/icon -->
<!DOCTYPE svg PUBLIC "-//W3C//DTD SVG 1.1//EN" "http://www.w3.org/Graphics/SVG/1.1/DTD/svg11.dtd">
<svg version="1.1" xmlns="http://www.w3.org/2000/svg" xmlns:xlink="http://www.w3.org/1999/xlink" x="0px" y="0px" viewBox="0 0 1000 1000" enable-background="new 0 0 1000 1000" xml:space="preserve">
<metadata> Svg Vector Icons : http://www.onlinewebfonts.com/icon </metadata>
<g><g transform="translate(0.000000,476.000000) scale(0.100000,-0.100000)"><path d="M272.3,3712.1v-602.9h-86.1H100v-555.1c0-509.1,3.8-562.7,36.4-627.8c78.5-153.1,176.1-195.2,451.7-195.2h201v-51.7c1.9-122.5,114.8-290.9,258.4-382.8l84.2-53.6l5.7-1464.3c7.7-1627,5.7-1592.5,143.6-2046.1c367.5-1223.1,1378.1-2166.7,2610.8-2440.4c541.7-118.7,1100.6-116.7,1768.6,9.6C7260.5-4397.8,8426.2-3389.1,8763-2011c68.9,279.4,103.4,624,103.4,1016.4v346.5l97.6,61.3c57.4,38.3,124.4,105.3,166.5,170.3c65.1,97.6,70.8,118.7,76.6,264.1l7.7,156.9l222,5.7c260.3,9.6,335,40.2,415.4,178l47.9,82.3v557v558.9h-86.1h-86.1v602.9v602.9H8694.1H7660.5v-602.9v-602.9h-86.1h-86.1V841c0-606.8,3.8-627.8,120.6-731.2c90-78.5,174.2-101.4,392.4-101.4h176.1v-128.2c0-95.7,11.5-155,45.9-225.9c42.1-91.9,172.3-229.7,258.4-275.6c38.3-21,40.2-34.4,40.2-371.3c0-191.4-9.6-424.9-19.1-520.6C8380.2-2612,7790.7-3463.7,6799.2-3971c-103.4-53.6-191.4-97.6-197.1-97.6c-5.7,0,51.7,65.1,126.3,143.6c357.9,379,604.9,849.9,715.9,1368.6c49.8,231.6,47.9,803.9-1.9,1033.6C7250.9-648.2,6690.1,62,5880.5,446.7c-708.2,336.9-1567.6,338.8-2273.9,1.9c-815.4-388.6-1382-1104.4-1565.7-1981.1c-49.8-239.3-51.7-790.5-1.9-1024c70.8-329.2,212.5-681.4,377.1-936c95.7-149.3,49.8-118.7-141.6,93.8c-269.9,298.6-505.3,706.3-633.6,1096.8c-155,474.7-162.7,580-162.7,2176.3v1370.5l101.4,67c111,74.6,218.2,229.7,235.4,346.4l11.5,68.9l223.9,7.7c252.7,5.7,313.9,32.5,405.8,164.6c45.9,67,45.9,70.8,51.7,639.3l5.7,570.4h-88h-86.1v602.9V4315H1305.9H272.3V3712.1z M789.1,3798.2V3626h172.3h172.3v172.3v172.3h172.3h172.3v-172.3V3626h172.3h172.3v172.3v172.3h86.1h86.1v-602.9v-602.9h86.1h86.1v-344.5v-344.5h-172.3h-172.3v181.8v181.8h-516.8H791l-5.7-176.1l-5.7-178l-166.5-5.7l-168.4-5.7v346.5v344.5h86.1h86.1v602.9v602.9h86.1h86.1V3798.2z M8177.3,2075.6v-172.3h172.3h172.3v172.3v172.3h172.3h172.3v-172.3v-172.3h172.3h172.3v172.3v172.3h86.1h86.1v-602.9V1042h86.1h86.1V697.4V351l-166.5,5.7l-168.4,5.7l-5.7,168.4l-5.7,166.5h-514.9h-516.8V525.2V351l-166.5,5.7l-168.4,5.7l-5.7,340.7l-3.8,338.8h86.1h86.1v602.9v602.9h86.1h86.1V2075.6z M1459,1861.2c0-256.5-15.3-283.3-155-283.3c-74.6,0-97.6,7.7-130.2,49.8c-34.5,44-40.2,78.5-40.2,248.8v199.1h162.7H1459V1861.2z M5174.2,322.3C6048.9,173,6770.5-458.7,7036.6-1308.5c128.2-411.5,143.6-914.9,38.3-1343.7c-30.6-124.4-141.7-428.8-151.2-417.3c-1.9,3.8,7.7,74.6,23,158.9c38.3,210.5,23,654.6-30.6,853.7c-178,681.4-610.6,1209.7-1236.5,1512.1c-832.6,402-1831.8,225.9-2497.9-442.1c-342.6-340.7-543.6-715.9-633.6-1173.3c-42.1-220.1-47.9-547.4-9.6-759.9c15.3-78.5,23-145.5,21.1-149.3c-13.4-15.3-112.9,269.9-155,444.1c-67,269.9-84.2,691-36.4,970.4c84.2,514.9,290.9,926.4,643.1,1290.1c373.2,384.7,836.4,620.2,1395.4,704.4C4544.5,360.6,5009.6,351,5174.2,322.3z M8862.6-31.8c-5.7-195.2-9.6-214.4-51.7-248.8c-57.4-47.9-176.1-47.9-233.5,0c-42.1,34.4-45.9,49.8-47.9,248.8l-3.8,212.5H8698h172.3L8862.6-31.8z M5086.1-703.7c754.2-114.8,1366.7-721.6,1514-1502.5c42.1-229.7,28.7-622.1-28.7-847.9c-172.3-656.5-675.7-1159.9-1334.1-1332.2c-164.6-44-227.8-49.8-495.8-49.8c-269.9-1.9-329.2,5.7-495.7,47.9C3512.8-4194.9,2996-3616.9,2875.4-2857c-32.5,201-15.3,589.5,36.4,780.9c143.6,547.4,518.7,1001.1,1024,1232.7C4274.6-686.4,4663.1-638.6,5086.1-703.7z"/><path d="M789.1,3281.4v-172.3h516.8h516.8v172.3v172.3h-516.8H789.1V3281.4z"/><path d="M8190.7,1736.8c-7.7-5.7-13.4-88-13.4-181.8v-168.4h516.8h516.8v181.8v181.8h-503.4C8430,1750.2,8196.5,1744.4,8190.7,1736.8z"/></g></g>
</svg>